<?xml version="1.0" encoding="utf-8"?>
<!-- Generator: Adobe Illustrator 12.0.0, SVG Export Plug-In . SVG Version: 6.00 Build 51448)  -->
<!DOCTYPE svg PUBLIC "-//W3C//DTD SVG 1.1//EN" "http://www.w3.org/Graphics/SVG/1.1/DTD/svg11.dtd" [
	<!ENTITY ns_svg "http://www.w3.org/2000/svg">
	<!ENTITY ns_xlink "http://www.w3.org/1999/xlink">
]>
<svg  version="1.1" xmlns="&ns_svg;" xmlns:xlink="&ns_xlink;" width="324.68" height="60.344" viewBox="0 0 324.68 60.344"
	 overflow="visible" enable-background="new 0 0 324.68 60.344" xml:space="preserve">
<g id="short_x5F_logo" display="none">
	<g display="inline">
		<g>
			<g>
				<g>
					<path fill="#0060B6" d="M111.916,55.019c0.356,1.438,0.909,1.817,1.852,1.817c0.771,0,1.506-0.518,1.506-1.483
						c0-0.955-0.575-1.346-1.702-2.104c-1.288-0.852-2.059-1.369-2.059-2.657c0-0.908,0.667-2.104,2.656-2.104
						c0.725,0,1.334,0.127,1.829,0.322c0.046,0.46,0.138,1.127,0.253,1.794l-0.586,0.092c-0.241-1.241-0.506-1.633-1.529-1.633
						c-0.725,0-1.346,0.426-1.346,1.196s0.437,1.104,1.564,1.874c0.92,0.633,1.449,0.955,1.783,1.403
						c0.288,0.38,0.471,0.862,0.471,1.461c0,1.322-1.012,2.415-2.909,2.415c-0.69,0-1.426-0.149-2.024-0.356
						c-0.081-0.76-0.207-1.357-0.345-1.897L111.916,55.019z"/>
					<path fill="#0060B6" d="M122.634,55.974c-0.517,0.954-1.322,1.414-2.346,1.414c-1.415,0-2.806-0.701-2.806-3.186
						c0-1.483,0.816-2.921,2.668-2.921c2.116,0,2.496,1.921,2.496,2.99h-3.772c0,0.759,0.104,1.392,0.414,1.886
						c0.287,0.448,0.736,0.701,1.23,0.701c0.805,0,1.392-0.482,1.69-1.092L122.634,55.974z M121.3,53.8
						c0-0.655-0.104-2.059-1.161-2.059c-0.541,0-1.219,0.438-1.265,2.059H121.3z"/>
					<path fill="#0060B6" d="M123.324,51.914v-0.38c0.908-0.08,1.345-0.609,1.667-1.852h0.402v1.748h1.46v0.483h-1.46v3.91
						c0,0.701,0.219,0.988,0.667,0.988c0.311,0,0.563-0.104,0.839-0.311l0.242,0.38c-0.379,0.322-0.839,0.506-1.495,0.506
						c-0.805,0-1.564-0.322-1.564-1.563v-3.91H123.324z"/>
					<path fill="#0060B6" d="M127.66,54.294c0-1.736,0.828-3.013,2.84-3.013c2.151,0,2.841,1.438,2.841,3.013
						c0,1.162-0.288,1.921-0.782,2.393c-0.518,0.482-1.208,0.701-2.059,0.701C128.81,57.388,127.66,56.537,127.66,54.294z
						 M129.04,54.329c0,1.161,0.207,2.587,1.449,2.587c1.15,0,1.449-1.195,1.449-2.587c0-1.3-0.253-2.588-1.449-2.588
						C129.235,51.741,129.04,53.155,129.04,54.329z"/>
					<path fill="#0060B6" d="M139.677,55.95c0,0.805,0.046,0.897,0.713,0.897v0.367c-0.587,0-1.127,0-1.817,0.173l-0.126-0.069
						l-0.058-0.793h-0.034c-0.391,0.46-0.955,0.862-1.829,0.862c-1.323,0-1.829-0.771-1.829-2.093v-2.254
						c0-0.76-0.046-0.84-0.632-0.84v-0.368c0.541-0.08,1.196-0.265,1.771-0.552l0.184,0.08v3.784c0,0.472,0,1.587,1,1.587
						c0.506,0,0.955-0.311,1.345-0.84v-2.863c0-0.759-0.046-0.828-0.621-0.828v-0.368c0.541-0.08,1.196-0.265,1.76-0.552l0.172,0.08
						V55.95z"/>
					<path fill="#0060B6" d="M146.013,56.088c-0.46,0.725-1.115,1.3-2.185,1.3c-2.449,0-2.714-2.185-2.714-3.094
						c0-1.794,1.058-3.013,2.806-3.013c1.208,0,1.955,0.655,1.955,1.242c0,0.311-0.161,0.528-0.437,0.528
						c-0.368,0-0.529-0.345-0.679-0.678c-0.149-0.38-0.391-0.633-0.816-0.633c-0.725,0-1.438,0.747-1.438,2.53
						c0,2.254,1.046,2.564,1.575,2.564c0.828,0,1.277-0.599,1.518-0.978L146.013,56.088z"/>
					<path fill="#0060B6" d="M146.634,56.836c0.667,0,0.736-0.104,0.736-0.908v-5.877c0-0.748-0.081-0.84-0.725-0.84v-0.368
						c0.609-0.092,1.253-0.253,1.875-0.552l0.161,0.092v3.888h0.023c0.506-0.587,1.185-0.989,1.966-0.989
						c1.725,0,1.725,1.426,1.725,2.081v2.576c0,0.771,0.058,0.897,0.633,0.897v0.402h-2.565v-0.402c0.563,0,0.621-0.081,0.621-0.908
						v-2.519c0-0.76-0.046-1.53-0.908-1.53c-0.506,0-1.012,0.449-1.495,1.069v2.99c0,0.816,0.058,0.897,0.586,0.897v0.402h-2.633
						V56.836z"/>
					<path fill="#0060B6" d="M155.708,51.361v4.577c0,0.794,0.058,0.897,0.736,0.897v0.402h-2.841v-0.402
						c0.736,0,0.782-0.104,0.782-0.908v-2.876c0-0.805-0.035-0.851-0.782-0.851v-0.368c0.679-0.068,1.276-0.241,1.955-0.552
						L155.708,51.361z M155.765,49.764c0,0.54-0.345,0.874-0.782,0.874s-0.771-0.334-0.771-0.874c0-0.518,0.333-0.863,0.771-0.863
						C155.455,48.9,155.765,49.269,155.765,49.764z"/>
					<path fill="#0060B6" d="M165.678,51.051c-0.242-1.276-0.402-2.035-1.633-2.035c-1.967,0-2.289,2.346-2.289,3.783
						c0,2.864,1.104,3.968,2.231,3.968c1.162,0,1.713-1.023,1.955-1.828l0.575,0.138c-0.517,1.852-1.736,2.335-2.76,2.335
						c-2.243,0-3.473-1.541-3.473-4.52c0-2.853,1.369-4.405,3.703-4.405c0.495,0,1.162,0.069,1.978,0.403
						c0.068,0.655,0.172,1.368,0.299,2.047L165.678,51.051z"/>
					<path fill="#0060B6" d="M169.426,51.361v4.577c0,0.794,0.059,0.897,0.736,0.897v0.402h-2.84v-0.402
						c0.735,0,0.781-0.104,0.781-0.908v-2.876c0-0.805-0.034-0.851-0.781-0.851v-0.368c0.678-0.068,1.275-0.241,1.955-0.552
						L169.426,51.361z M169.485,49.764c0,0.54-0.346,0.874-0.783,0.874c-0.437,0-0.77-0.334-0.77-0.874
						c0-0.518,0.333-0.863,0.77-0.863C169.174,48.9,169.485,49.269,169.485,49.764z"/>
					<path fill="#0060B6" d="M173.796,57.388h-0.575l-1.955-4.749c-0.311-0.748-0.402-0.806-0.781-0.806v-0.402h2.564v0.402
						c-0.368,0-0.518,0.046-0.518,0.23c0,0.092,0.046,0.229,0.115,0.425l1.195,3.278h0.023l1.242-3.45
						c0.046-0.127,0.08-0.219,0.08-0.288c0-0.149-0.126-0.195-0.472-0.195v-0.402h1.656v0.402c-0.333,0-0.448,0.069-0.655,0.599
						L173.796,57.388z"/>
					<path fill="#0060B6" d="M178.925,51.361v4.577c0,0.794,0.058,0.897,0.736,0.897v0.402h-2.841v-0.402
						c0.736,0,0.782-0.104,0.782-0.908v-2.876c0-0.805-0.035-0.851-0.782-0.851v-0.368c0.679-0.068,1.276-0.241,1.955-0.552
						L178.925,51.361z M178.983,49.764c0,0.54-0.345,0.874-0.782,0.874c-0.437,0-0.771-0.334-0.771-0.874
						c0-0.518,0.334-0.863,0.771-0.863C178.672,48.9,178.983,49.269,178.983,49.764z"/>
					<path fill="#0060B6" d="M180.248,56.836c0.736,0,0.794-0.127,0.794-0.908v-5.889c0-0.725-0.058-0.828-0.794-0.828v-0.368
						c0.656-0.08,1.288-0.241,1.944-0.552l0.161,0.092v7.556c0,0.771,0.046,0.897,0.735,0.897v0.402h-2.841V56.836z"/>
					<path fill="#0060B6" d="M192.518,57.238h-5.681v-0.46c0.839,0,0.932-0.115,0.932-0.954v-5.751c0-0.851-0.093-0.942-0.932-0.942
						v-0.472h5.382l0.368,1.909h-0.598c-0.3-1.276-0.426-1.346-1.07-1.346h-1.334c-0.379,0-0.414,0.092-0.414,0.541V52.5h1.242
						c0.518,0,0.621-0.138,0.621-1.173h0.563v2.944h-0.563c0-1.116-0.092-1.196-0.609-1.196h-1.254v3.07
						c0,0.472,0.093,0.518,0.322,0.518h1.726c0.667,0,0.793-0.104,1.092-1.402h0.599L192.518,57.238z"/>
					<path fill="#0060B6" d="M195.565,52.305c0.518-0.633,1.162-1.023,1.921-1.023c1.276,0,1.794,0.69,1.794,1.897v2.783
						c0,0.736,0.058,0.874,0.609,0.874v0.402h-2.519v-0.402c0.553,0,0.599-0.081,0.599-0.908v-2.715
						c0-0.932-0.276-1.334-0.943-1.334c-0.46,0-0.989,0.426-1.461,1.081v2.979c0,0.816,0.023,0.897,0.575,0.897v0.402h-2.622v-0.402
						c0.667,0,0.736-0.092,0.736-0.908v-2.853c0-0.782-0.08-0.886-0.736-0.874v-0.368c0.609-0.08,1.242-0.253,1.794-0.552
						l0.185,0.092l0.046,0.932H195.565z"/>
					<path fill="#0060B6" d="M205.294,52.006c0.392,0.368,0.599,0.84,0.599,1.414c0,1.461-1.139,2.162-2.508,2.162
						c-0.425,0-0.827-0.068-1.195-0.219c-0.311,0.207-0.495,0.403-0.495,0.645c0,0.333,0.334,0.506,1.013,0.506h1.311
						c1.852,0,2.461,0.816,2.461,1.69c0,1.242-1.3,2.14-3.254,2.14c-1.714,0-2.841-0.483-2.841-1.484
						c0-0.747,0.689-1.265,1.38-1.529c-0.494-0.115-0.966-0.426-0.966-0.966c0-0.552,0.472-0.897,0.978-1.185
						c-0.587-0.356-0.978-0.978-0.978-1.748c0-1.368,1.081-2.15,2.53-2.15c0.655,0,1.173,0.161,1.529,0.368l1.633-0.219v0.667
						L205.294,52.006z M202.328,57.503c-0.54,0.345-0.862,0.747-0.862,1.219c0,0.701,0.701,1.162,1.816,1.162
						c1.334,0,2.116-0.633,2.116-1.369c0-0.482-0.311-1.012-1.587-1.012H202.328z M204.547,53.42c0-0.862-0.368-1.679-1.208-1.679
						c-0.805,0-1.207,0.816-1.207,1.679c0,1.023,0.46,1.69,1.23,1.69C204.191,55.11,204.547,54.375,204.547,53.42z"/>
					<path fill="#0060B6" d="M209.17,51.361v4.577c0,0.794,0.058,0.897,0.736,0.897v0.402h-2.841v-0.402
						c0.736,0,0.782-0.104,0.782-0.908v-2.876c0-0.805-0.034-0.851-0.782-0.851v-0.368c0.679-0.068,1.276-0.241,1.955-0.552
						L209.17,51.361z M209.228,49.764c0,0.54-0.345,0.874-0.782,0.874c-0.437,0-0.771-0.334-0.771-0.874
						c0-0.518,0.334-0.863,0.771-0.863C208.917,48.9,209.228,49.269,209.228,49.764z"/>
					<path fill="#0060B6" d="M212.551,52.305c0.518-0.633,1.162-1.023,1.921-1.023c1.276,0,1.794,0.69,1.794,1.897v2.783
						c0,0.736,0.058,0.874,0.609,0.874v0.402h-2.519v-0.402c0.553,0,0.599-0.081,0.599-0.908v-2.715
						c0-0.932-0.276-1.334-0.943-1.334c-0.46,0-0.989,0.426-1.461,1.081v2.979c0,0.816,0.023,0.897,0.575,0.897v0.402h-2.622v-0.402
						c0.667,0,0.736-0.092,0.736-0.908v-2.853c0-0.782-0.08-0.886-0.736-0.874v-0.368c0.609-0.08,1.242-0.253,1.794-0.552
						l0.185,0.092l0.046,0.932H212.551z"/>
					<path fill="#0060B6" d="M222.695,55.974c-0.518,0.954-1.322,1.414-2.346,1.414c-1.415,0-2.807-0.701-2.807-3.186
						c0-1.483,0.817-2.921,2.669-2.921c2.115,0,2.495,1.921,2.495,2.99h-3.772c0,0.759,0.104,1.392,0.414,1.886
						c0.288,0.448,0.736,0.701,1.23,0.701c0.806,0,1.392-0.482,1.69-1.092L222.695,55.974z M221.361,53.8
						c0-0.655-0.104-2.059-1.161-2.059c-0.541,0-1.22,0.438-1.266,2.059H221.361z"/>
					<path fill="#0060B6" d="M228.709,55.974c-0.518,0.954-1.322,1.414-2.346,1.414c-1.415,0-2.807-0.701-2.807-3.186
						c0-1.483,0.817-2.921,2.669-2.921c2.115,0,2.495,1.921,2.495,2.99h-3.772c0,0.759,0.104,1.392,0.414,1.886
						c0.288,0.448,0.736,0.701,1.23,0.701c0.806,0,1.392-0.482,1.69-1.092L228.709,55.974z M227.375,53.8
						c0-0.655-0.104-2.059-1.161-2.059c-0.541,0-1.219,0.438-1.266,2.059H227.375z"/>
					<path fill="#0060B6" d="M231.493,52.247h0.023c0.506-0.667,0.92-0.966,1.506-0.966c0.599,0,1.035,0.448,1.035,0.954
						c0,0.346-0.172,0.575-0.472,0.575c-0.241,0-0.425-0.138-0.54-0.448c-0.115-0.334-0.207-0.448-0.414-0.448
						c-0.345,0-0.69,0.379-1.115,0.988v3.036c0,0.771,0.08,0.897,0.851,0.897v0.402h-2.887v-0.402c0.667,0,0.725-0.081,0.725-0.897
						v-2.909c0-0.748-0.068-0.828-0.725-0.828v-0.368c0.609-0.068,1.23-0.241,1.817-0.552l0.149,0.092L231.493,52.247z"/>
					<path fill="#0060B6" d="M236.667,51.361v4.577c0,0.794,0.058,0.897,0.736,0.897v0.402h-2.841v-0.402
						c0.736,0,0.782-0.104,0.782-0.908v-2.876c0-0.805-0.035-0.851-0.782-0.851v-0.368c0.679-0.068,1.276-0.241,1.955-0.552
						L236.667,51.361z M236.725,49.764c0,0.54-0.345,0.874-0.782,0.874c-0.437,0-0.771-0.334-0.771-0.874
						c0-0.518,0.334-0.863,0.771-0.863C236.415,48.9,236.725,49.269,236.725,49.764z"/>
					<path fill="#0060B6" d="M240.048,52.305c0.518-0.633,1.162-1.023,1.921-1.023c1.276,0,1.794,0.69,1.794,1.897v2.783
						c0,0.736,0.058,0.874,0.609,0.874v0.402h-2.519v-0.402c0.553,0,0.599-0.081,0.599-0.908v-2.715
						c0-0.932-0.276-1.334-0.943-1.334c-0.46,0-0.989,0.426-1.461,1.081v2.979c0,0.816,0.023,0.897,0.575,0.897v0.402h-2.622v-0.402
						c0.667,0,0.736-0.092,0.736-0.908v-2.853c0-0.782-0.08-0.886-0.736-0.874v-0.368c0.609-0.08,1.242-0.253,1.794-0.552
						l0.185,0.092l0.046,0.932H240.048z"/>
					<path fill="#0060B6" d="M249.778,52.006c0.392,0.368,0.599,0.84,0.599,1.414c0,1.461-1.139,2.162-2.508,2.162
						c-0.425,0-0.827-0.068-1.195-0.219c-0.311,0.207-0.495,0.403-0.495,0.645c0,0.333,0.334,0.506,1.013,0.506h1.311
						c1.852,0,2.461,0.816,2.461,1.69c0,1.242-1.3,2.14-3.254,2.14c-1.714,0-2.841-0.483-2.841-1.484
						c0-0.747,0.689-1.265,1.38-1.529c-0.494-0.115-0.966-0.426-0.966-0.966c0-0.552,0.472-0.897,0.978-1.185
						c-0.587-0.356-0.978-0.978-0.978-1.748c0-1.368,1.081-2.15,2.53-2.15c0.655,0,1.173,0.161,1.529,0.368l1.633-0.219v0.667
						L249.778,52.006z M246.811,57.503c-0.54,0.345-0.862,0.747-0.862,1.219c0,0.701,0.701,1.162,1.816,1.162
						c1.334,0,2.116-0.633,2.116-1.369c0-0.482-0.311-1.012-1.587-1.012H246.811z M249.031,53.42c0-0.862-0.368-1.679-1.208-1.679
						c-0.805,0-1.207,0.816-1.207,1.679c0,1.023,0.46,1.69,1.23,1.69C248.674,55.11,249.031,54.375,249.031,53.42z"/>
					<path fill="#0060B6" d="M260.174,51.051c-0.242-1.276-0.403-2.035-1.634-2.035c-1.966,0-2.288,2.346-2.288,3.783
						c0,2.864,1.104,3.968,2.231,3.968c1.161,0,1.713-1.023,1.954-1.828l0.575,0.138c-0.518,1.852-1.736,2.335-2.76,2.335
						c-2.242,0-3.473-1.541-3.473-4.52c0-2.853,1.368-4.405,3.703-4.405c0.494,0,1.161,0.069,1.978,0.403
						c0.069,0.655,0.173,1.368,0.299,2.047L260.174,51.051z"/>
					<path fill="#0060B6" d="M261.898,54.294c0-1.736,0.828-3.013,2.841-3.013c2.15,0,2.841,1.438,2.841,3.013
						c0,1.162-0.288,1.921-0.782,2.393c-0.518,0.482-1.207,0.701-2.059,0.701C263.048,57.388,261.898,56.537,261.898,54.294z
						 M263.279,54.329c0,1.161,0.207,2.587,1.448,2.587c1.15,0,1.449-1.195,1.449-2.587c0-1.3-0.253-2.588-1.449-2.588
						C263.474,51.741,263.279,53.155,263.279,54.329z"/>
					<path fill="#0060B6" d="M270.029,56.617c0,0.402-0.311,0.759-0.736,0.759s-0.736-0.356-0.736-0.759
						c0-0.414,0.311-0.759,0.736-0.759C269.741,55.858,270.029,56.227,270.029,56.617z"/>
					<path fill="#0060B6" d="M271.224,58.457c0.402-0.311,0.736-0.793,0.748-1.253c-0.069,0.126-0.219,0.138-0.322,0.138
						c-0.265,0-0.541-0.241-0.541-0.679c0-0.414,0.334-0.735,0.748-0.735c0.494,0,0.747,0.391,0.747,0.896
						c0,0.932-0.552,1.575-1.149,1.932L271.224,58.457z"/>
					<path fill="#0060B6" d="M279.596,55.157l-0.402,2.081h-5.704v-0.46c0.839,0,0.932-0.115,0.932-0.966v-5.739
						c0-0.851-0.093-0.942-0.932-0.942v-0.472h3.277v0.472c-0.886,0-0.943,0.08-0.943,0.966v6.026c0,0.494,0.081,0.54,0.38,0.54
						h1.645c0.701,0,0.816-0.115,1.139-1.506H279.596z"/>
					<path fill="#0060B6" d="M280.079,51.914v-0.38c0.908-0.08,1.346-0.609,1.667-1.852h0.403v1.748h1.46v0.483h-1.46v3.91
						c0,0.701,0.218,0.988,0.667,0.988c0.311,0,0.563-0.104,0.839-0.311l0.242,0.38c-0.38,0.322-0.84,0.506-1.495,0.506
						c-0.806,0-1.564-0.322-1.564-1.563v-3.91H280.079z"/>
					<path fill="#0060B6" d="M288.439,51.868v-1.806c0-0.725-0.046-0.852-0.736-0.852v-0.368c0.69-0.08,1.3-0.241,1.887-0.552
						l0.161,0.081v7.705c0,0.713,0.08,0.771,0.632,0.781v0.346c-0.437,0-1.207,0.022-1.759,0.184l-0.104-0.08l-0.047-0.633h-0.022
						c-0.265,0.322-0.794,0.701-1.587,0.701c-1.288,0-2.45-0.896-2.45-3.128c0-1.541,0.76-2.967,2.588-2.967
						c0.679,0,1.139,0.299,1.415,0.587H288.439z M288.439,52.581c-0.265-0.402-0.679-0.771-1.185-0.771
						c-1.368,0-1.449,1.702-1.449,2.519c0,1.599,0.599,2.507,1.403,2.507c0.552,0,0.955-0.402,1.23-0.782V52.581z"/>
					<path fill="#0060B6" d="M292.694,56.617c0,0.402-0.311,0.759-0.736,0.759s-0.736-0.356-0.736-0.759
						c0-0.414,0.311-0.759,0.736-0.759C292.406,55.858,292.694,56.227,292.694,56.617z"/>
				</g>
				<g>
					<g>
						<path fill="#0060B6" d="M163.499,12.74c2.539,1.062,5.77,2.77,7.339,4.2l-3.231,4.478c-1.478-1.431-4.616-3.416-7.154-4.616
							L163.499,12.74z M160.868,40.527c1.662-3.739,3.876-9.693,5.539-15.187l4.616,2.77c-1.431,4.985-3.231,10.201-4.662,13.756
							c0.323,0.323,0.462,0.692,0.462,1.016c0,0.23-0.093,0.415-0.186,0.6L160.868,40.527z M202.549,9.832v24.095h-11.725
							l4.386,2.216c-0.093,0.185-0.369,0.322-0.739,0.369c-1.153,2.216-3.97,5.446-6.277,7.154
							c-0.969-0.831-2.724-2.123-4.016-2.861c2.446-1.57,4.985-4.616,6.277-6.878h-1.708V9.832h3.555l0.554-3.508h-5.031v3.554
							h-5.724v3.046h5.354v13.202h-5.4v1.615c1.8,1.2,5.077,3.462,5.862,4.108l-2.539,4.938c-0.738-1.016-2.031-2.538-3.323-3.97
							v10.756h-4.894V32.865c-1.522,3.185-3.323,6.185-5.169,8.216c-0.462-1.569-1.616-3.97-2.4-5.446
							c2.446-2.216,4.938-6.001,6.601-9.509h-4.016V12.924h4.938V9.878h-5.724V5.954l-2.446,3.324
							c-1.477-1.523-4.662-3.554-7.155-4.801l3.092-4.016c2.539,1.062,5.771,2.908,7.34,4.385l-0.185,0.277h5.077V0.046l6.14,0.323
							c-0.047,0.416-0.369,0.692-1.154,0.831v3.923h5.077V1.569h16.94v4.754h-5.954c-0.277,1.062-0.692,2.308-1.062,3.508H202.549z
							 M175.916,17.31v4.477h1.801V17.31H175.916z M183.486,21.787V17.31h-1.984v4.477H183.486z M197.887,16.571v-2.539h-4.708
							v2.539H197.887z M197.887,23.125v-2.585h-4.708v2.585H197.887z M197.887,29.726v-2.677h-4.708v2.677H197.887z M200.057,43.574
							c-0.739-2.124-2.678-5.401-4.386-7.848l4.247-1.8c1.8,2.308,3.785,5.446,4.616,7.57L200.057,43.574z"/>
						<path fill="#0060B6" d="M245.846,11.309v20.449h-5.632v-2.816h-22.525c-0.831,5.309-2.77,10.939-7.063,14.817
							c-0.877-1.108-3.139-3.186-4.339-3.878c5.724-5.17,6.277-12.647,6.277-18.325V11.309H245.846z M208.273,2.262h40.619V7.57
							h-40.619V2.262z M240.214,16.433h-22.018v5.169c0,0.692,0,1.431-0.046,2.216h22.063V16.433z"/>
						<path fill="#0060B6" d="M293.85,7.754V37.25c0,5.678-2.308,6.416-11.586,6.416c-0.185-1.569-1.016-4.062-1.8-5.493
							c1.615,0.093,3.416,0.093,4.754,0.093c2.816,0,3.139,0,3.139-1.062V13.155h-11.309c-0.092,1.477-0.276,3.046-0.554,4.569
							c4.016,3.693,9.093,8.494,11.632,11.771l-4.662,3.554c-1.8-2.584-5.308-6.416-8.724-9.785
							c-1.801,4.016-4.939,7.848-10.155,10.939c-0.738-1.061-2.216-2.723-3.462-3.785v13.248h-5.539V7.754h15.833V0l6.924,0.369
							c-0.047,0.461-0.37,0.785-1.247,0.923v6.462H293.85z M261.124,13.155V29.68c8.309-4.432,9.971-10.986,10.247-16.525H261.124z"
							/>
					</g>
					<g>
						<g>
							<path fill="#0060B6" d="M115.384,9.321c0.646,0.854,2.493,3.647,2.908,4.293l-1.523,2.077c-0.3-0.762-0.831-1.87-1.385-2.908
								v9.763h-2.562v-8.77c-0.646,1.846-1.408,3.531-2.239,4.708c-0.23-0.761-0.854-1.846-1.269-2.516
								c1.385-1.846,2.654-5.031,3.3-7.824h-2.724V5.582h2.931v-4.8l3.162,0.185c-0.023,0.208-0.185,0.346-0.6,0.416v4.2h2.539
								v2.562h-2.539V9.321z M131.124,12.944H127.2c1.247,2.146,2.955,4.316,4.5,5.655c-0.646,0.484-1.592,1.454-2.077,2.192
								c-1.223-1.338-2.539-3.3-3.623-5.354v7.108h-2.747v-6.854c-1.247,2.192-2.792,4.154-4.385,5.47
								c-0.438-0.646-1.315-1.639-1.938-2.146c1.985-1.361,3.923-3.646,5.216-6.07h-4.247v-2.562h5.354V7.221h-2.169
								c-0.323,0.993-0.669,1.939-1.108,2.724c-0.577-0.37-1.592-0.9-2.216-1.131c1.039-1.916,1.685-4.985,1.962-7.224l3.046,0.646
								c-0.069,0.162-0.254,0.3-0.554,0.3c-0.116,0.623-0.277,1.362-0.438,2.146h1.477v-3.9l3.37,0.185
								C126.6,1.197,126.416,1.335,126,1.428v3.254h4.477v2.539H126v3.162h5.124V12.944z"/>
							<path fill="#0060B6" d="M153.972,7.452h-6.277c0.438,6.485,1.823,12.14,3.508,12.163c0.508,0,0.831-1.292,0.923-4.223
								c0.646,0.669,1.639,1.408,2.423,1.708c-0.438,4.455-1.385,5.493-3.601,5.493c-3.993-0.023-5.677-7.063-6.231-15.14h-11.609
								v-2.7h11.471c-0.046-1.292-0.069-2.585-0.069-3.854l3.739,0.208c0,0.253-0.208,0.415-0.669,0.484
								c-0.023,1.062-0.023,2.1,0,3.162h3.67c-0.646-0.785-1.8-1.777-2.747-2.47l1.823-1.523c1.062,0.738,2.423,1.8,3.069,2.584
								l-1.615,1.408h2.192V7.452z M140.263,12.69v5.285c1.431-0.253,2.931-0.531,4.362-0.808l0.185,2.446
								c-3.739,0.854-7.731,1.685-10.27,2.193c-0.046,0.23-0.231,0.369-0.416,0.416l-1.016-3.07c1.2-0.185,2.723-0.416,4.408-0.715
								V12.69h-3.554v-2.584h9.947v2.584H140.263z"/>
						</g>
						<g>
							<path fill="#0060B6" d="M115.015,33.414v-1.708c-1.247,0.854-2.585,1.661-3.97,2.308c-0.323-0.623-1.039-1.708-1.616-2.262
								c4.016-1.777,7.801-5.124,9.509-7.893l3.739,0.185c-0.069,0.231-0.277,0.416-0.6,0.461c2.146,2.885,6.024,5.493,9.532,6.763
								c-0.692,0.691-1.315,1.685-1.8,2.539c-1.292-0.601-2.654-1.385-3.947-2.262v1.869H115.015z M110.883,37.914v-2.585h19.271
								v2.585h-10.848l0.692,0.23c-0.092,0.185-0.323,0.277-0.692,0.277c-0.484,1.131-1.154,2.446-1.846,3.67
								c2.285-0.047,4.777-0.115,7.27-0.185c-0.785-0.9-1.616-1.777-2.423-2.516l2.446-1.27c2.077,1.8,4.247,4.224,5.332,5.978
								l-2.585,1.569c-0.254-0.462-0.6-0.97-0.993-1.523c-5.216,0.323-10.57,0.601-14.101,0.762
								c-0.046,0.208-0.231,0.346-0.439,0.369l-0.969-3.046c0.969-0.023,2.124-0.023,3.416-0.069
								c0.669-1.293,1.338-2.862,1.846-4.247H110.883z M124.916,30.875c-1.8-1.339-3.439-2.862-4.5-4.316
								c-0.992,1.408-2.493,2.931-4.293,4.316H124.916z"/>
							<path fill="#0060B6" d="M142.709,29.075c-0.069,0.162-0.208,0.277-0.393,0.346c-0.692,1.8-1.685,3.577-2.862,5.193
								c1.131,0.784,3.047,2.192,3.578,2.607l-1.616,2.285c-0.531-0.646-1.431-1.547-2.308-2.354v8.517h-2.746v-7.501
								c-0.9,0.854-1.823,1.569-2.77,2.17c-0.231-0.716-0.9-2.077-1.339-2.608c2.654-1.477,5.193-4.132,6.739-7.063h-6.024v-2.492
								h3.393v-4.293l3.37,0.185c-0.023,0.231-0.208,0.369-0.624,0.438v3.67h1.362l0.416-0.116L142.709,29.075z M149.656,42.253
								h4.962v2.724h-13.202v-2.724h5.377v-8.517h-4.431V31.06h4.431v-6.97l3.485,0.208c-0.023,0.231-0.208,0.369-0.623,0.438v6.324
								h4.408v2.677h-4.408V42.253z"/>
						</g>
					</g>
				</g>
			</g>
		</g>
		<g>
			<path fill="#1B9431" d="M54.314,28.256c0-14.314,11.533-25.931,25.731-25.931c14.199,0,25.708,11.616,25.708,25.931H54.314z"/>
			<path fill="#0480B8" d="M79.87,28.207c0,14.342-11.51,25.947-25.708,25.947c-14.226,0-25.731-11.605-25.731-25.947H79.87z"/>
		</g>
	</g>
</g>
<g id="long_x5F_logo">
	<g>
		<g>
			<g>
				<path fill="#0060B6" d="M84.795,49.097c0.473,1.75,1.206,2.212,2.457,2.212c1.022,0,1.999-0.63,1.999-1.806
					c0-1.162-0.763-1.638-2.258-2.563c-1.709-1.035-2.732-1.666-2.732-3.233c0-1.106,0.885-2.563,3.525-2.563
					c0.961,0,1.77,0.154,2.426,0.393c0.061,0.56,0.183,1.372,0.335,2.184l-0.778,0.112c-0.32-1.512-0.671-1.988-2.029-1.988
					c-0.961,0-1.786,0.519-1.786,1.456c0,0.938,0.58,1.344,2.076,2.282c1.221,0.77,1.922,1.162,2.365,1.708
					c0.381,0.462,0.625,1.05,0.625,1.777c0,1.61-1.343,2.94-3.861,2.94c-0.916,0-1.892-0.182-2.686-0.434
					c-0.107-0.925-0.275-1.652-0.458-2.311L84.795,49.097z"/>
				<path fill="#0060B6" d="M99.018,50.259c-0.687,1.162-1.755,1.722-3.113,1.722c-1.877,0-3.723-0.854-3.723-3.878
					c0-1.806,1.083-3.556,3.54-3.556c2.808,0,3.312,2.338,3.312,3.64h-5.005c0,0.924,0.137,1.694,0.549,2.296
					c0.382,0.547,0.977,0.854,1.633,0.854c1.068,0,1.847-0.588,2.243-1.33L99.018,50.259z M97.247,47.613
					c0-0.799-0.137-2.507-1.541-2.507c-0.717,0-1.618,0.532-1.679,2.507H97.247z"/>
				<path fill="#0060B6" d="M99.933,45.316v-0.462c1.206-0.098,1.785-0.741,2.212-2.254h0.534v2.128h1.938v0.588h-1.938v4.761
					c0,0.854,0.29,1.204,0.885,1.204c0.412,0,0.748-0.126,1.114-0.378L105,51.365c-0.504,0.392-1.114,0.615-1.984,0.615
					c-1.068,0-2.076-0.392-2.076-1.903v-4.761H99.933z"/>
				<path fill="#0060B6" d="M105.686,48.215c0-2.114,1.099-3.668,3.769-3.668c2.854,0,3.769,1.75,3.769,3.668
					c0,1.414-0.381,2.338-1.038,2.912c-0.687,0.588-1.602,0.854-2.731,0.854C107.212,51.98,105.686,50.944,105.686,48.215z
					 M107.517,48.257c0,1.414,0.274,3.15,1.923,3.15c1.526,0,1.922-1.456,1.922-3.15c0-1.582-0.335-3.15-1.922-3.15
					C107.776,45.106,107.517,46.829,107.517,48.257z"/>
				<path fill="#0060B6" d="M121.633,50.23c0,0.98,0.061,1.093,0.946,1.093v0.447c-0.778,0-1.496,0-2.411,0.21L120,51.896
					l-0.076-0.966h-0.046c-0.519,0.561-1.266,1.05-2.426,1.05c-1.755,0-2.426-0.938-2.426-2.548v-2.744
					c0-0.924-0.061-1.021-0.839-1.021v-0.448c0.717-0.098,1.587-0.322,2.35-0.672l0.244,0.098v4.606c0,0.574,0,1.932,1.328,1.932
					c0.671,0,1.267-0.378,1.786-1.021v-3.486c0-0.924-0.061-1.008-0.824-1.008v-0.448c0.717-0.098,1.587-0.322,2.335-0.672
					l0.229,0.098V50.23z"/>
				<path fill="#0060B6" d="M130.041,50.398c-0.61,0.883-1.48,1.582-2.899,1.582c-3.25,0-3.601-2.659-3.601-3.766
					c0-2.184,1.404-3.668,3.723-3.668c1.603,0,2.594,0.798,2.594,1.512c0,0.378-0.213,0.645-0.58,0.645
					c-0.488,0-0.702-0.42-0.9-0.826c-0.199-0.462-0.519-0.771-1.083-0.771c-0.961,0-1.908,0.91-1.908,3.08
					c0,2.744,1.389,3.122,2.091,3.122c1.099,0,1.694-0.728,2.014-1.189L130.041,50.398z"/>
				<path fill="#0060B6" d="M130.865,51.309c0.885,0,0.977-0.126,0.977-1.105v-7.154c0-0.91-0.107-1.021-0.961-1.021v-0.448
					c0.809-0.112,1.663-0.309,2.487-0.672l0.214,0.111v4.732h0.03c0.671-0.714,1.572-1.204,2.609-1.204
					c2.289,0,2.289,1.736,2.289,2.534v3.136c0,0.938,0.076,1.092,0.839,1.092v0.49h-3.403v-0.49c0.748,0,0.824-0.098,0.824-1.105
					v-3.066c0-0.924-0.061-1.862-1.206-1.862c-0.671,0-1.343,0.547-1.983,1.303v3.64c0,0.994,0.076,1.092,0.778,1.092v0.49h-3.494
					V51.309z"/>
				<path fill="#0060B6" d="M142.905,44.645v5.572c0,0.966,0.076,1.092,0.977,1.092v0.49h-3.769v-0.49
					c0.977,0,1.038-0.126,1.038-1.105v-3.5c0-0.98-0.046-1.036-1.038-1.036v-0.448c0.9-0.084,1.694-0.294,2.594-0.672
					L142.905,44.645z M142.981,42.699c0,0.657-0.458,1.063-1.038,1.063s-1.022-0.406-1.022-1.063c0-0.63,0.442-1.051,1.022-1.051
					C142.569,41.648,142.981,42.097,142.981,42.699z"/>
				<path fill="#0060B6" d="M156.135,44.267c-0.32-1.554-0.534-2.478-2.167-2.478c-2.609,0-3.037,2.855-3.037,4.605
					c0,3.486,1.466,4.83,2.961,4.83c1.541,0,2.273-1.246,2.594-2.226l0.764,0.168c-0.687,2.254-2.305,2.842-3.663,2.842
					c-2.976,0-4.608-1.876-4.608-5.502c0-3.472,1.816-5.362,4.914-5.362c0.656,0,1.541,0.084,2.625,0.49
					c0.091,0.798,0.229,1.666,0.396,2.492L156.135,44.267z"/>
				<path fill="#0060B6" d="M161.109,44.645v5.572c0,0.966,0.076,1.092,0.977,1.092v0.49h-3.77v-0.49
					c0.977,0,1.038-0.126,1.038-1.105v-3.5c0-0.98-0.046-1.036-1.038-1.036v-0.448c0.9-0.084,1.694-0.294,2.595-0.672
					L161.109,44.645z M161.186,42.699c0,0.657-0.458,1.063-1.037,1.063c-0.58,0-1.022-0.406-1.022-1.063
					c0-0.63,0.442-1.051,1.022-1.051C160.773,41.648,161.186,42.097,161.186,42.699z"/>
				<path fill="#0060B6" d="M166.909,51.98h-0.764l-2.594-5.781c-0.412-0.91-0.534-0.98-1.037-0.98v-0.49h3.403v0.49
					c-0.488,0-0.688,0.056-0.688,0.28c0,0.112,0.063,0.28,0.152,0.518l1.588,3.99H167l1.646-4.2c0.063-0.153,0.107-0.266,0.107-0.35
					c0-0.183-0.168-0.238-0.625-0.238v-0.49h2.197v0.49c-0.443,0-0.596,0.084-0.869,0.729L166.909,51.98z"/>
				<path fill="#0060B6" d="M173.713,44.645v5.572c0,0.966,0.076,1.092,0.977,1.092v0.49h-3.77v-0.49
					c0.977,0,1.039-0.126,1.039-1.105v-3.5c0-0.98-0.047-1.036-1.039-1.036v-0.448c0.9-0.084,1.695-0.294,2.596-0.672
					L173.713,44.645z M173.79,42.699c0,0.657-0.457,1.063-1.037,1.063s-1.021-0.406-1.021-1.063c0-0.63,0.441-1.051,1.021-1.051
					C173.377,41.648,173.79,42.097,173.79,42.699z"/>
				<path fill="#0060B6" d="M175.469,51.309c0.977,0,1.053-0.153,1.053-1.105v-7.168c0-0.882-0.076-1.008-1.053-1.008v-0.448
					c0.869-0.099,1.709-0.294,2.578-0.672l0.215,0.111v9.198c0,0.938,0.061,1.092,0.977,1.092v0.49h-3.77V51.309z"/>
				<path fill="#0060B6" d="M191.75,51.799h-7.537v-0.56c1.113,0,1.236-0.141,1.236-1.162v-7c0-1.036-0.123-1.148-1.236-1.148
					v-0.574h7.141l0.488,2.324h-0.793c-0.396-1.554-0.564-1.638-1.42-1.638h-1.77c-0.504,0-0.549,0.112-0.549,0.658v3.332h1.648
					c0.686,0,0.824-0.168,0.824-1.429h0.746v3.584h-0.746c0-1.357-0.123-1.456-0.811-1.456h-1.662v3.738
					c0,0.574,0.121,0.63,0.428,0.63h2.289c0.885,0,1.053-0.126,1.449-1.708h0.793L191.75,51.799z"/>
				<path fill="#0060B6" d="M195.795,45.793c0.686-0.771,1.541-1.246,2.549-1.246c1.693,0,2.381,0.84,2.381,2.31v3.389
					c0,0.896,0.076,1.063,0.809,1.063v0.49h-3.342v-0.49c0.732,0,0.793-0.098,0.793-1.105v-3.305c0-1.134-0.367-1.624-1.252-1.624
					c-0.609,0-1.313,0.519-1.938,1.316v3.626c0,0.994,0.031,1.092,0.764,1.092v0.49h-3.48v-0.49c0.885,0,0.977-0.111,0.977-1.105
					V46.73c0-0.951-0.107-1.077-0.977-1.063v-0.448c0.809-0.098,1.648-0.308,2.381-0.672l0.244,0.112l0.061,1.134H195.795z"/>
				<path fill="#0060B6" d="M208.706,45.429c0.518,0.448,0.793,1.022,0.793,1.722c0,1.778-1.512,2.633-3.326,2.633
					c-0.564,0-1.1-0.084-1.588-0.267c-0.412,0.252-0.656,0.49-0.656,0.784c0,0.406,0.443,0.616,1.344,0.616h1.738
					c2.457,0,3.266,0.994,3.266,2.058c0,1.513-1.723,2.604-4.318,2.604c-2.273,0-3.77-0.588-3.77-1.807
					c0-0.909,0.916-1.54,1.832-1.861c-0.656-0.141-1.281-0.519-1.281-1.177c0-0.672,0.625-1.092,1.297-1.441
					c-0.779-0.435-1.297-1.19-1.297-2.128c0-1.666,1.434-2.618,3.357-2.618c0.869,0,1.557,0.196,2.029,0.448l2.166-0.267v0.813
					L208.706,45.429z M204.768,52.121c-0.717,0.42-1.145,0.91-1.145,1.483c0,0.854,0.93,1.414,2.41,1.414
					c1.771,0,2.809-0.77,2.809-1.666c0-0.588-0.412-1.231-2.105-1.231H204.768z M207.713,47.15c0-1.05-0.488-2.044-1.604-2.044
					c-1.066,0-1.602,0.994-1.602,2.044c0,1.246,0.611,2.059,1.633,2.059C207.241,49.209,207.713,48.313,207.713,47.15z"/>
				<path fill="#0060B6" d="M213.848,44.645v5.572c0,0.966,0.076,1.092,0.977,1.092v0.49h-3.77v-0.49
					c0.977,0,1.037-0.126,1.037-1.105v-3.5c0-0.98-0.045-1.036-1.037-1.036v-0.448c0.9-0.084,1.693-0.294,2.594-0.672
					L213.848,44.645z M213.924,42.699c0,0.657-0.459,1.063-1.037,1.063c-0.58,0-1.023-0.406-1.023-1.063
					c0-0.63,0.443-1.051,1.023-1.051C213.512,41.648,213.924,42.097,213.924,42.699z"/>
				<path fill="#0060B6" d="M218.334,45.793c0.686-0.771,1.541-1.246,2.549-1.246c1.693,0,2.381,0.84,2.381,2.31v3.389
					c0,0.896,0.076,1.063,0.809,1.063v0.49h-3.342v-0.49c0.732,0,0.793-0.098,0.793-1.105v-3.305c0-1.134-0.367-1.624-1.252-1.624
					c-0.609,0-1.313,0.519-1.938,1.316v3.626c0,0.994,0.031,1.092,0.764,1.092v0.49h-3.48v-0.49c0.885,0,0.977-0.111,0.977-1.105
					V46.73c0-0.951-0.107-1.077-0.977-1.063v-0.448c0.809-0.098,1.648-0.308,2.381-0.672l0.244,0.112l0.061,1.134H218.334z"/>
				<path fill="#0060B6" d="M231.793,50.259c-0.688,1.162-1.756,1.722-3.113,1.722c-1.877,0-3.723-0.854-3.723-3.878
					c0-1.806,1.082-3.556,3.539-3.556c2.809,0,3.313,2.338,3.313,3.64h-5.006c0,0.924,0.137,1.694,0.549,2.296
					c0.383,0.547,0.977,0.854,1.633,0.854c1.068,0,1.848-0.588,2.244-1.33L231.793,50.259z M230.024,47.613
					c0-0.799-0.139-2.507-1.543-2.507c-0.717,0-1.617,0.532-1.678,2.507H230.024z"/>
				<path fill="#0060B6" d="M239.774,50.259c-0.688,1.162-1.756,1.722-3.113,1.722c-1.877,0-3.723-0.854-3.723-3.878
					c0-1.806,1.082-3.556,3.539-3.556c2.809,0,3.313,2.338,3.313,3.64h-5.006c0,0.924,0.137,1.694,0.549,2.296
					c0.383,0.547,0.977,0.854,1.633,0.854c1.068,0,1.848-0.588,2.244-1.33L239.774,50.259z M238.004,47.613
					c0-0.799-0.139-2.507-1.543-2.507c-0.717,0-1.617,0.532-1.678,2.507H238.004z"/>
				<path fill="#0060B6" d="M243.465,45.723h0.031c0.672-0.812,1.221-1.176,2-1.176c0.793,0,1.373,0.546,1.373,1.162
					c0,0.42-0.229,0.7-0.627,0.7c-0.32,0-0.564-0.168-0.717-0.546c-0.152-0.406-0.273-0.547-0.549-0.547
					c-0.457,0-0.916,0.463-1.48,1.204v3.696c0,0.938,0.107,1.092,1.129,1.092v0.49h-3.83v-0.49c0.885,0,0.961-0.098,0.961-1.092
					v-3.542c0-0.91-0.092-1.008-0.961-1.008v-0.448c0.809-0.084,1.633-0.294,2.412-0.672l0.197,0.112L243.465,45.723z"/>
				<path fill="#0060B6" d="M250.333,44.645v5.572c0,0.966,0.076,1.092,0.977,1.092v0.49h-3.77v-0.49
					c0.977,0,1.039-0.126,1.039-1.105v-3.5c0-0.98-0.047-1.036-1.039-1.036v-0.448c0.9-0.084,1.695-0.294,2.596-0.672
					L250.333,44.645z M250.409,42.699c0,0.657-0.457,1.063-1.037,1.063s-1.021-0.406-1.021-1.063c0-0.63,0.441-1.051,1.021-1.051
					C249.997,41.648,250.409,42.097,250.409,42.699z"/>
				<path fill="#0060B6" d="M254.819,45.793c0.688-0.771,1.543-1.246,2.549-1.246c1.693,0,2.381,0.84,2.381,2.31v3.389
					c0,0.896,0.076,1.063,0.809,1.063v0.49h-3.342v-0.49c0.732,0,0.793-0.098,0.793-1.105v-3.305c0-1.134-0.365-1.624-1.25-1.624
					c-0.611,0-1.313,0.519-1.939,1.316v3.626c0,0.994,0.031,1.092,0.764,1.092v0.49h-3.479v-0.49c0.885,0,0.977-0.111,0.977-1.105
					V46.73c0-0.951-0.107-1.077-0.977-1.063v-0.448c0.809-0.098,1.646-0.308,2.379-0.672l0.244,0.112l0.063,1.134H254.819z"/>
				<path fill="#0060B6" d="M267.729,45.429c0.52,0.448,0.793,1.022,0.793,1.722c0,1.778-1.51,2.633-3.326,2.633
					c-0.564,0-1.098-0.084-1.586-0.267c-0.412,0.252-0.656,0.49-0.656,0.784c0,0.406,0.441,0.616,1.342,0.616h1.74
					c2.457,0,3.266,0.994,3.266,2.058c0,1.513-1.725,2.604-4.318,2.604c-2.273,0-3.77-0.588-3.77-1.807
					c0-0.909,0.916-1.54,1.832-1.861c-0.656-0.141-1.283-0.519-1.283-1.177c0-0.672,0.627-1.092,1.297-1.441
					c-0.777-0.435-1.297-1.19-1.297-2.128c0-1.666,1.436-2.618,3.357-2.618c0.869,0,1.557,0.196,2.029,0.448l2.168-0.267v0.813
					L267.729,45.429z M263.792,52.121c-0.717,0.42-1.145,0.91-1.145,1.483c0,0.854,0.932,1.414,2.412,1.414
					c1.77,0,2.807-0.77,2.807-1.666c0-0.588-0.41-1.231-2.105-1.231H263.792z M266.737,47.15c0-1.05-0.488-2.044-1.602-2.044
					c-1.068,0-1.602,0.994-1.602,2.044c0,1.246,0.609,2.059,1.633,2.059C266.264,49.209,266.737,48.313,266.737,47.15z"/>
				<path fill="#0060B6" d="M281.524,44.267c-0.32-1.554-0.533-2.478-2.166-2.478c-2.609,0-3.037,2.855-3.037,4.605
					c0,3.486,1.465,4.83,2.961,4.83c1.541,0,2.273-1.246,2.594-2.226l0.764,0.168c-0.688,2.254-2.305,2.842-3.664,2.842
					c-2.975,0-4.607-1.876-4.607-5.502c0-3.472,1.816-5.362,4.914-5.362c0.656,0,1.541,0.084,2.625,0.49
					c0.09,0.798,0.229,1.666,0.396,2.492L281.524,44.267z"/>
				<path fill="#0060B6" d="M283.813,48.215c0-2.114,1.1-3.668,3.77-3.668c2.854,0,3.77,1.75,3.77,3.668
					c0,1.414-0.383,2.338-1.037,2.912c-0.688,0.588-1.604,0.854-2.732,0.854C285.338,51.98,283.813,50.944,283.813,48.215z
					 M285.645,48.257c0,1.414,0.273,3.15,1.922,3.15c1.525,0,1.924-1.456,1.924-3.15c0-1.582-0.336-3.15-1.924-3.15
					C285.905,45.106,285.645,46.829,285.645,48.257z"/>
				<path fill="#0060B6" d="M294.602,51.043c0,0.49-0.412,0.924-0.977,0.924s-0.977-0.434-0.977-0.924
					c0-0.504,0.412-0.924,0.977-0.924C294.221,50.119,294.602,50.566,294.602,51.043z"/>
				<path fill="#0060B6" d="M296.19,53.283c0.533-0.378,0.977-0.967,0.99-1.526c-0.09,0.154-0.289,0.168-0.426,0.168
					c-0.352,0-0.719-0.294-0.719-0.826c0-0.504,0.443-0.896,0.992-0.896c0.656,0,0.992,0.476,0.992,1.092
					c0,1.134-0.732,1.918-1.525,2.352L296.19,53.283z"/>
				<path fill="#0060B6" d="M307.299,49.265l-0.535,2.534h-7.568v-0.56c1.113,0,1.236-0.141,1.236-1.177v-6.985
					c0-1.036-0.123-1.148-1.236-1.148v-0.574h4.35v0.574c-1.176,0-1.252,0.099-1.252,1.176v7.336c0,0.603,0.107,0.658,0.504,0.658
					h2.182c0.932,0,1.084-0.14,1.51-1.834H307.299z"/>
				<path fill="#0060B6" d="M307.938,45.316v-0.462c1.207-0.098,1.787-0.741,2.213-2.254h0.535v2.128h1.938v0.588h-1.938v4.761
					c0,0.854,0.289,1.204,0.885,1.204c0.412,0,0.748-0.126,1.113-0.378l0.32,0.462c-0.502,0.392-1.113,0.615-1.982,0.615
					c-1.068,0-2.076-0.392-2.076-1.903v-4.761H307.938z"/>
				<path fill="#0060B6" d="M319.034,45.261v-2.198c0-0.882-0.063-1.035-0.977-1.035v-0.448c0.914-0.099,1.725-0.294,2.502-0.672
					l0.213,0.098v9.38c0,0.868,0.107,0.938,0.84,0.952v0.42c-0.58,0-1.602,0.028-2.334,0.224l-0.139-0.098l-0.061-0.77h-0.029
					c-0.352,0.392-1.055,0.854-2.107,0.854c-1.709,0-3.25-1.092-3.25-3.808c0-1.876,1.008-3.612,3.434-3.612
					c0.9,0,1.512,0.364,1.877,0.714H319.034z M319.034,46.129c-0.352-0.49-0.9-0.938-1.572-0.938c-1.816,0-1.922,2.072-1.922,3.066
					c0,1.946,0.793,3.052,1.861,3.052c0.732,0,1.266-0.49,1.633-0.952V46.129z"/>
				<path fill="#0060B6" d="M324.68,51.043c0,0.49-0.412,0.924-0.977,0.924c-0.566,0-0.979-0.434-0.979-0.924
					c0-0.504,0.412-0.924,0.979-0.924C324.297,50.119,324.68,50.566,324.68,51.043z"/>
			</g>
			<g>
				<path fill="#0060B6" d="M91.368,17c0.952,1.258,3.672,5.372,4.284,6.324l-2.244,3.06c-0.442-1.122-1.224-2.754-2.04-4.284
					v14.382h-3.774v-12.92c-0.952,2.72-2.074,5.202-3.298,6.937c-0.34-1.122-1.258-2.72-1.87-3.707
					c2.04-2.72,3.91-7.412,4.862-11.526h-4.012v-3.774h4.318V4.419l4.658,0.272c-0.034,0.306-0.272,0.51-0.884,0.612v6.188h3.74
					v3.774h-3.74V17z M114.556,22.337h-5.78c1.836,3.162,4.353,6.358,6.631,8.331c-0.952,0.714-2.347,2.142-3.061,3.229
					c-1.802-1.972-3.74-4.861-5.338-7.888v10.472h-4.046V26.384c-1.836,3.229-4.114,6.12-6.46,8.058
					c-0.646-0.952-1.938-2.414-2.856-3.162c2.924-2.006,5.78-5.372,7.685-8.942h-6.257v-3.774h7.889v-4.658h-3.196
					c-0.476,1.462-0.986,2.856-1.632,4.012c-0.851-0.544-2.346-1.326-3.265-1.666c1.53-2.822,2.482-7.344,2.891-10.642l4.488,0.952
					c-0.103,0.238-0.374,0.442-0.816,0.442c-0.17,0.918-0.408,2.006-0.646,3.162h2.176V4.419l4.964,0.272
					c-0.034,0.34-0.306,0.544-0.918,0.68v4.794h6.596v3.74h-6.596v4.658h7.548V22.337z"/>
				<path fill="#0060B6" d="M148.216,14.246h-9.248c0.646,9.554,2.686,17.884,5.168,17.918c0.748,0,1.224-1.904,1.36-6.223
					c0.952,0.986,2.414,2.074,3.569,2.517c-0.646,6.562-2.04,8.092-5.304,8.092c-5.882-0.034-8.364-10.404-9.18-22.304h-17.103
					v-3.978h16.898c-0.068-1.904-0.103-3.808-0.103-5.678l5.509,0.306c0,0.374-0.307,0.612-0.986,0.714
					c-0.034,1.564-0.034,3.094,0,4.658h5.406c-0.952-1.156-2.652-2.618-4.046-3.638l2.686-2.244c1.564,1.088,3.57,2.652,4.522,3.808
					l-2.381,2.074h3.23V14.246z M128.02,21.963v7.787c2.108-0.374,4.318-0.782,6.426-1.19l0.272,3.604
					c-5.508,1.258-11.391,2.481-15.13,3.229c-0.068,0.34-0.341,0.544-0.612,0.612l-1.496-4.522c1.768-0.271,4.012-0.611,6.494-1.054
					v-8.466h-5.236v-3.808h14.654v3.808H128.02z"/>
				<path fill="#0060B6" d="M158.823,18.496v-2.516c-1.836,1.258-3.808,2.448-5.848,3.4c-0.477-0.918-1.53-2.516-2.38-3.332
					c5.916-2.618,11.492-7.548,14.008-11.628l5.508,0.272c-0.102,0.34-0.408,0.612-0.885,0.68c3.162,4.25,8.875,8.092,14.043,9.962
					c-1.02,1.02-1.938,2.482-2.652,3.74c-1.904-0.884-3.91-2.04-5.814-3.332v2.754H158.823z M152.737,25.125v-3.808h28.39v3.808
					h-15.98l1.021,0.34c-0.137,0.272-0.477,0.408-1.021,0.408c-0.713,1.666-1.7,3.604-2.719,5.406
					c3.366-0.067,7.038-0.17,10.709-0.271c-1.156-1.326-2.379-2.618-3.57-3.706l3.605-1.87c3.059,2.652,6.256,6.222,7.854,8.806
					l-3.809,2.313c-0.373-0.68-0.883-1.428-1.461-2.244c-7.686,0.476-15.573,0.884-20.775,1.122c-0.068,0.306-0.34,0.51-0.646,0.544
					l-1.429-4.488c1.429-0.034,3.128-0.034,5.032-0.102c0.986-1.904,1.972-4.216,2.72-6.256H152.737z M173.411,14.755
					c-2.652-1.972-5.066-4.216-6.631-6.358c-1.463,2.074-3.672,4.318-6.324,6.358H173.411z"/>
				<path fill="#0060B6" d="M199.624,12.104c-0.102,0.238-0.307,0.408-0.578,0.51c-1.02,2.652-2.482,5.27-4.215,7.65
					c1.666,1.156,4.486,3.23,5.27,3.842l-2.381,3.366c-0.781-0.952-2.107-2.278-3.4-3.468V36.55h-4.045V25.5
					c-1.326,1.258-2.686,2.312-4.08,3.196c-0.34-1.054-1.326-3.06-1.973-3.842c3.91-2.176,7.65-6.086,9.928-10.404h-8.873v-3.672
					h4.998V4.453l4.963,0.272c-0.033,0.34-0.305,0.544-0.918,0.646v5.406h2.006l0.613-0.17L199.624,12.104z M209.858,31.518h7.311
					v4.012h-19.449v-4.012h7.922V18.972h-6.527v-3.944h6.527V4.759l5.135,0.306c-0.033,0.34-0.307,0.544-0.918,0.646v9.316h6.494
					v3.944h-6.494V31.518z"/>
				<path fill="#0060B6" d="M228.286,13.804c1.869,0.782,4.25,2.04,5.406,3.094l-2.381,3.298c-1.088-1.054-3.4-2.516-5.27-3.4
					L228.286,13.804z M226.348,34.271c1.223-2.754,2.855-7.14,4.08-11.186l3.398,2.04c-1.053,3.672-2.379,7.514-3.434,10.132
					c0.238,0.238,0.34,0.51,0.34,0.748c0,0.17-0.068,0.306-0.135,0.441L226.348,34.271z M257.049,11.662v17.748h-8.637l3.23,1.633
					c-0.068,0.136-0.271,0.237-0.543,0.271c-0.85,1.632-2.924,4.013-4.625,5.271c-0.713-0.612-2.006-1.564-2.957-2.108
					c1.801-1.156,3.672-3.4,4.623-5.066h-1.258V11.662h2.619l0.406-2.584h-3.705v2.618h-4.217v2.244h3.945v9.724h-3.979v1.19
					c1.326,0.884,3.74,2.55,4.318,3.026l-1.871,3.638c-0.543-0.748-1.496-1.87-2.447-2.924v7.922h-3.604v-7.888
					c-1.123,2.346-2.449,4.556-3.809,6.052c-0.34-1.156-1.189-2.924-1.768-4.012c1.801-1.632,3.637-4.42,4.861-7.004h-2.957v-9.724
					h3.637v-2.244H234.1v-2.89l-1.803,2.448c-1.088-1.122-3.434-2.618-5.27-3.536l2.277-2.958c1.871,0.782,4.25,2.142,5.406,3.23
					l-0.137,0.204h3.74v-3.74l4.523,0.238c-0.035,0.306-0.273,0.51-0.852,0.612v2.89h3.74V5.575h12.479v3.502h-4.387
					c-0.203,0.782-0.51,1.7-0.781,2.584H257.049z M237.432,17.169v3.298h1.326v-3.298H237.432z M243.008,20.468v-3.298h-1.463v3.298
					H243.008z M253.616,16.625v-1.87h-3.469v1.87H253.616z M253.616,21.454v-1.904h-3.469v1.904H253.616z M253.616,26.315v-1.972
					h-3.469v1.972H253.616z M255.213,36.516c-0.543-1.563-1.973-3.978-3.23-5.78l3.129-1.326c1.326,1.7,2.787,4.013,3.4,5.576
					L255.213,36.516z"/>
				<path fill="#0060B6" d="M288.942,12.75v15.062h-4.148v-2.074h-16.592c-0.613,3.91-2.041,8.058-5.203,10.914
					c-0.645-0.815-2.311-2.346-3.195-2.855c4.217-3.809,4.625-9.316,4.625-13.499V12.75H288.942z M261.266,6.085h29.92v3.91h-29.92
					V6.085z M284.793,16.523h-16.219v3.808c0,0.51,0,1.054-0.033,1.632h16.252V16.523z"/>
				<path fill="#0060B6" d="M324.301,10.131v21.726c0,4.183-1.699,4.727-8.533,4.727c-0.137-1.156-0.748-2.992-1.326-4.046
					c1.189,0.067,2.516,0.067,3.502,0.067c2.074,0,2.313,0,2.313-0.782V14.109h-8.33c-0.068,1.088-0.205,2.244-0.408,3.366
					c2.957,2.72,6.697,6.256,8.568,8.67l-3.436,2.618c-1.326-1.904-3.91-4.726-6.426-7.208c-1.326,2.958-3.639,5.78-7.48,8.058
					c-0.543-0.781-1.631-2.006-2.549-2.788v9.758h-4.08V10.131h11.662V4.419l5.1,0.272c-0.033,0.34-0.271,0.578-0.918,0.68v4.76
					H324.301z M300.196,14.109v12.172c6.119-3.264,7.344-8.092,7.547-12.172H300.196z"/>
			</g>
		</g>
		<g>
			<path fill="#1B9431" d="M25.884,29.553c0-14.314,11.533-25.931,25.731-25.931c14.199,0,25.708,11.616,25.708,25.931H25.884z"/>
			<path fill="#0480B8" d="M51.439,29.504c0,14.341-11.51,25.947-25.708,25.947C11.506,55.451,0,43.846,0,29.504H51.439z"/>
		</g>
	</g>
</g>
</svg>
